<svg width="41" height="40" viewBox="0 0 41 40" fill="none" xmlns="http://www.w3.org/2000/svg">
<path d="M12.7695 39.95C11.7695 39.95 10.9195 39.6 10.2195 38.9C9.51948 38.2 9.16948 37.35 9.16948 36.35C9.16948 35.35 9.51948 34.5 10.2195 33.8C10.9195 33.1 11.7695 32.75 12.7695 32.75C13.7695 32.75 14.6195 33.1 15.3195 33.8C16.0195 34.5 16.3695 35.35 16.3695 36.35C16.3695 37.35 16.0195 38.2 15.3195 38.9C14.6195 39.6 13.7695 39.95 12.7695 39.95ZM32.7695 39.95C31.7695 39.95 30.9195 39.6 30.2195 38.9C29.5195 38.2 29.1695 37.35 29.1695 36.35C29.1695 35.35 29.5195 34.5 30.2195 33.8C30.9195 33.1 31.7695 32.75 32.7695 32.75C33.7695 32.75 34.6195 33.1 35.3195 33.8C36.0195 34.5 36.3695 35.35 36.3695 36.35C36.3695 37.35 36.0195 38.2 35.3195 38.9C34.6195 39.6 33.7695 39.95 32.7695 39.95ZM8.66948 3.95H38.1195C38.8862 3.95 39.4695 4.3 39.8695 5C40.2695 5.7 40.2695 6.4 39.8695 7.1L33.1195 19.25C32.7528 19.8833 32.2778 20.3917 31.6945 20.775C31.1112 21.1583 30.4695 21.35 29.7695 21.35H14.6195L11.8195 26.55H36.3695V29.55H12.2695C10.8695 29.55 9.86115 29.0833 9.24448 28.15C8.62782 27.2167 8.63615 26.1667 9.26948 25L12.4695 19.1L4.86948 3H0.969482V0H6.81948L8.66948 3.95Z" fill="#734338"/>
</svg>
