<svg width="25" height="26" viewBox="0 0 25 26" fill="none" xmlns="http://www.w3.org/2000/svg">
<g clip-path="url(#clip0_962_9709)">
<rect x="0.359375" y="0.729736" width="24" height="24.3774" rx="12" fill="white"/>
<path d="M9.39717 9.78798C9.15465 9.78787 8.93035 9.91925 8.80892 10.1327C8.6876 10.3461 8.68749 10.609 8.8087 10.8224C8.93002 11.036 9.1541 11.1676 9.39674 11.1676L13.8106 11.1681C14.0532 11.1681 14.2775 11.0365 14.3989 10.8231C14.5203 10.6095 14.5203 10.3465 14.3988 10.133C14.2775 9.91944 14.0533 9.78796 13.8105 9.78795L9.39663 9.78848L9.39717 9.78798Z" fill="#734338"/>
<path fill-rule="evenodd" clip-rule="evenodd" d="M4.60903 19.1251C4.42888 19.125 4.25623 19.0524 4.12891 18.923C4.00159 18.7937 3.93011 18.6183 3.93011 18.4355L3.92959 15.6757C3.9297 15.4929 4.00118 15.3175 4.1285 15.1882C4.25581 15.0589 4.42847 14.9863 4.6084 14.9862C5.15841 15.0019 5.69104 14.7909 6.08554 14.4015C6.47994 14.012 6.70252 13.4772 6.70263 12.9185C6.70274 12.3598 6.48034 11.8247 6.08617 11.435C5.69189 11.0454 5.15936 10.8343 4.60947 10.8497C4.42921 10.8499 4.25645 10.7772 4.12903 10.6477C4.0016 10.5183 3.9299 10.3427 3.93011 10.1596L3.93066 7.40089C3.93066 7.21801 4.00214 7.04264 4.12946 6.91332C4.25678 6.784 4.42943 6.7114 4.60947 6.7114H19.5471L19.547 6.71129C20.0874 6.71129 20.6055 6.92932 20.9876 7.3174C21.3697 7.70548 21.5843 8.23178 21.5842 8.78053L21.5842 10.1597C21.5842 10.3426 21.5126 10.5179 21.3853 10.6472C21.258 10.7765 21.0854 10.8492 20.9054 10.8492C20.2495 10.8492 19.5471 11.5178 19.5476 12.5736C19.5476 13.6289 20.2501 14.2976 20.9054 14.298L20.9053 14.2981C21.0934 14.298 21.273 14.377 21.4014 14.5164C21.5299 14.6558 21.5958 14.8429 21.5833 15.0336C21.584 15.0485 21.5843 15.0634 21.5842 15.0783L21.5842 17.0564C21.5841 17.6049 21.3696 18.1311 20.9876 18.5191C20.6057 18.9071 20.0877 19.1249 19.5476 19.1251H16.2731L16.2688 19.1255H16.2649L4.60903 19.1251ZM19.5467 17.7456L16.9478 17.7452V8.08926L19.5472 8.09026L19.547 8.09026C19.7271 8.09026 19.8998 8.16298 20.0271 8.2923C20.1543 8.42151 20.2259 8.59699 20.2259 8.77986V9.56404C19.0011 9.91662 18.1888 11.2021 18.1888 12.5725C18.1893 13.9433 19.0016 15.2289 20.2254 15.5815L20.226 17.0557L20.2261 17.0556C20.2261 17.2385 20.1544 17.4138 20.0271 17.5431C19.8997 17.6725 19.7272 17.7452 19.5471 17.7452L19.5467 17.7456ZM5.28823 8.08926L15.5898 8.08926L15.5898 17.7452H5.28823L5.28771 16.2973L5.28782 16.2972C6.31773 16.083 7.19202 15.3963 7.65523 14.4375C8.11843 13.4789 8.11842 12.3564 7.65523 11.3978C7.19191 10.4391 6.31783 9.75245 5.28782 9.53812L5.28782 8.0897L5.28823 8.08926Z" fill="#734338"/>
</g>
<defs>
<clipPath id="clip0_962_9709">
<rect x="0.359375" y="0.729736" width="24" height="24.3774" rx="12" fill="white"/>
</clipPath>
</defs>
</svg>
