<svg width="25" height="25" viewBox="0 0 25 25" fill="none" xmlns="http://www.w3.org/2000/svg">
<rect x="0.359375" y="0.188721" width="24" height="24.3774" rx="12" fill="#FFB905"/>
<path d="M16.6019 2.22021H8.11682C6.58982 2.22021 5.12537 2.83629 4.04564 3.933C2.96591 5.0297 2.35938 6.51723 2.35938 8.06819V16.6867C2.35938 18.2377 2.96591 19.7252 4.04564 20.8219C5.12537 21.9186 6.58988 22.5347 8.11682 22.5347H16.6019C18.1289 22.5347 19.5934 21.9186 20.6731 20.8219C21.7528 19.7252 22.3594 18.2377 22.3594 16.6867V8.06819C22.3594 6.51718 21.7528 5.0297 20.6731 3.933C19.5934 2.83629 18.1289 2.22021 16.6019 2.22021V2.22021ZM8.11734 4.06697H16.6019C17.6458 4.07026 18.6458 4.49279 19.384 5.2424C20.122 5.99223 20.538 7.00794 20.5412 8.06819V8.37591L4.4806 8.37612C4.3767 8.37756 4.27403 8.39838 4.17764 8.43754V8.06819C4.18089 7.00794 4.59687 5.99223 5.33488 5.2424C6.0731 4.49277 7.07309 4.07024 8.11693 4.06697L8.11734 4.06697ZM14.4809 20.6877H10.2385V16.3786H14.4809V20.6877ZM14.4809 14.5317H10.2385V10.2226H14.4809V14.5317ZM4.17764 10.1611C4.27403 10.2003 4.3767 10.2211 4.4806 10.2228H8.42009V14.5319L4.4806 14.5317C4.3767 14.5334 4.27403 14.5542 4.17764 14.5933V10.1611ZM4.17764 16.6865V16.3171C4.27403 16.3563 4.3767 16.3771 4.4806 16.3786H8.42009V20.6877H8.11693C7.0731 20.6844 6.07311 20.2619 5.33488 19.5123C4.59686 18.7625 4.18087 17.7467 4.17765 16.6865L4.17764 16.6865ZM16.6019 20.6877H16.299V10.223H20.5414L20.5412 16.6866C20.538 17.7469 20.122 18.7626 19.384 19.5124C18.6458 20.262 17.6458 20.6846 16.6019 20.6878L16.6019 20.6877Z" fill="#734338"/>
</svg>
