<svg width="25" height="25" viewBox="0 0 25 25" fill="none" xmlns="http://www.w3.org/2000/svg">
<rect x="0.359375" y="0.434082" width="24" height="24.3774" rx="12" fill="white"/>
<path d="M2.35938 5.51279C2.35938 3.82986 3.70254 2.46558 5.35942 2.46558H12.3594C14.0163 2.46558 15.3594 3.82986 15.3594 5.51279V8.05208C15.3594 8.61307 14.9118 9.06776 14.3595 9.06776C13.8072 9.06776 13.3593 8.61307 13.3593 8.05208V5.51279C13.3593 4.9518 12.9117 4.49694 12.3594 4.49694H5.35942C4.80711 4.49694 4.35929 4.9518 4.35929 5.51279V19.7328C4.35929 20.2938 4.80711 20.7487 5.35942 20.7487H12.3594C12.9117 20.7487 13.3593 20.2938 13.3593 19.7328V17.1935C13.3593 16.6326 13.8072 16.1779 14.3595 16.1779C14.9118 16.1779 15.3594 16.6326 15.3594 17.1935V19.7328C15.3594 21.4159 14.0163 22.78 12.3594 22.78H5.35942C3.70254 22.78 2.35938 21.4159 2.35938 19.7328V5.51279Z" fill="#734338"/>
<path d="M16.3573 15.67C16.3573 16.0548 16.5715 16.4065 16.9101 16.5786C17.249 16.7505 17.6544 16.7134 17.9575 16.4827L21.9575 13.4355C22.2093 13.2435 22.3574 12.9425 22.3574 12.6228C22.3574 12.3031 22.2093 12.0021 21.9575 11.8102L17.9575 8.76295C17.6545 8.53219 17.249 8.49496 16.9101 8.66704C16.5714 8.83913 16.3573 9.19077 16.3573 9.57559V11.6071H11.3576C10.8052 11.6071 10.3574 12.0618 10.3574 12.6228C10.3574 13.1838 10.8052 13.6385 11.3576 13.6385H16.3573V15.67Z" fill="#734338"/>
</svg>
