<svg width="25" height="26" viewBox="0 0 25 26" fill="none" xmlns="http://www.w3.org/2000/svg">
<rect x="0.359375" y="0.811279" width="24" height="24.3774" rx="12" fill="white"/>
<path d="M17.4877 21.0214H7.23107C5.93899 21.0214 4.69984 20.5001 3.78622 19.5721C2.8726 18.6441 2.35938 17.3855 2.35938 16.0731V9.82256C2.35938 8.51017 2.8726 7.25153 3.78622 6.32355C4.69984 5.39556 5.93904 4.87427 7.23107 4.87427H17.4877C18.7798 4.87427 20.0189 5.39556 20.9325 6.32355C21.8461 7.25153 22.3594 8.51021 22.3594 9.82256V16.0731C22.3594 17.3855 21.8461 18.6441 20.9325 19.5721C20.0189 20.5001 18.7797 21.0214 17.4877 21.0214V21.0214ZM7.23107 6.43708C6.34782 6.4397 5.50168 6.7974 4.87702 7.43168C4.25254 8.06598 3.90055 8.92561 3.89782 9.82274V16.0733C3.90057 16.9704 4.25256 17.8301 4.87702 18.4643C5.50168 19.0986 6.34782 19.4564 7.23107 19.4589H17.4877C18.3709 19.4563 19.2171 19.0986 19.8417 18.4643C20.4662 17.8301 20.8182 16.9704 20.8209 16.0733V9.82274C20.8182 8.92561 20.4662 8.06598 19.8417 7.43168C19.2171 6.79738 18.3709 6.43967 17.4877 6.43708H7.23107Z" fill="#734338"/>
<path d="M12.3569 13.7296C11.2721 13.7315 10.2181 13.3647 9.36211 12.6879L5.86473 9.9271C5.68754 9.80624 5.56786 9.61597 5.53404 9.40197C5.50038 9.1878 5.55584 8.9691 5.68703 8.79821C5.81838 8.62729 6.0136 8.51934 6.22619 8.50033C6.43875 8.48132 6.6496 8.55282 6.80825 8.69793L10.3056 11.4585C10.893 11.9198 11.6145 12.1701 12.3569 12.1701C13.0994 12.1701 13.8209 11.9198 14.4083 11.4585L17.9056 8.69793C18.0643 8.55282 18.2751 8.48132 18.4877 8.50033C18.7003 8.51934 18.8955 8.62729 19.0269 8.79821C19.158 8.96912 19.2135 9.18782 19.1799 9.40197C19.146 9.61596 19.0263 9.80623 18.8492 9.9271L15.3518 12.6877V12.6879C14.4958 13.3647 13.4418 13.7315 12.357 13.7296L12.3569 13.7296Z" fill="#734338"/>
</svg>
