<svg width="25" height="25" viewBox="0 0 25 25" fill="none" xmlns="http://www.w3.org/2000/svg">
<rect x="0.359375" y="0.270508" width="24" height="24.3774" rx="12" fill="white"/>
<path d="M8.45224 22.0968L12.3592 19.1205C12.4417 19.0572 12.5557 19.0572 12.6383 19.1205L16.5452 22.0968C17.0546 22.4843 17.688 22.6651 18.3215 22.6039C18.9552 22.5427 19.5435 22.2437 19.9718 21.7657C20.4002 21.2875 20.6379 20.6645 20.6384 20.0181V5.37273C20.6373 4.5586 20.3185 3.77812 19.7518 3.2025C19.1849 2.62672 18.4166 2.30293 17.615 2.302H7.38273C6.5812 2.30295 5.81281 2.62674 5.24594 3.2025C4.67923 3.77812 4.36045 4.55856 4.35938 5.37273V20.0181C4.35938 20.6648 4.59686 21.2882 5.02511 21.7665C5.45352 22.2448 6.0422 22.5438 6.67585 22.6049C7.30965 22.6659 7.94318 22.4848 8.4524 22.0968H8.45224ZM5.75452 5.37281C5.75499 4.93451 5.92676 4.51422 6.23201 4.2042C6.53708 3.89417 6.95085 3.71985 7.38253 3.71937H17.6152H17.615C18.0467 3.71984 18.4605 3.89416 18.7656 4.2042C19.0708 4.51423 19.2426 4.93451 19.243 5.37281V20.0182C19.243 20.3121 19.1351 20.5954 18.9403 20.8129C18.7456 21.0303 18.4781 21.1661 18.19 21.194C17.9019 21.2217 17.6141 21.1394 17.3825 20.963L13.4756 17.9877C13.1932 17.7741 12.8508 17.6588 12.4988 17.6588C12.1469 17.6588 11.8044 17.7741 11.5221 17.9877L7.61513 20.963C7.38355 21.1394 7.09578 21.2217 6.80766 21.194C6.51956 21.1661 6.25199 21.0303 6.05736 20.8129C5.86254 20.5954 5.75462 20.3121 5.75462 20.0182L5.75452 5.37281Z" fill="#734338"/>
<path d="M9.70841 8.44365H15.2898C15.5391 8.44365 15.7694 8.30857 15.894 8.08933C16.0186 7.87009 16.0186 7.59992 15.894 7.38069C15.7694 7.16145 15.5391 7.02637 15.2898 7.02637H9.70841C9.45908 7.02637 9.22876 7.16145 9.10418 7.38069C8.9796 7.59993 8.9796 7.8701 9.10418 8.08933C9.22876 8.30857 9.45909 8.44365 9.70841 8.44365Z" fill="#734338"/>
</svg>
