<svg width="25" height="25" viewBox="0 0 25 25" fill="none" xmlns="http://www.w3.org/2000/svg">
<rect x="0.359375" y="0.352295" width="24" height="24.3774" rx="12" fill="white"/>
<path d="M17.4877 4.41528H7.23107C5.93899 4.41528 4.69984 4.93658 3.78622 5.86456C2.8726 6.79255 2.35938 8.05123 2.35938 9.36358V15.6141C2.35938 16.9265 2.8726 18.1852 3.78622 19.1131C4.69984 20.0411 5.93904 20.5624 7.23107 20.5624H17.4877C18.7798 20.5624 20.0189 20.0411 20.9325 19.1131C21.8461 18.1852 22.3594 16.9265 22.3594 15.6141V9.36358C22.3594 8.05118 21.8461 6.79255 20.9325 5.86456C20.0189 4.93658 18.7797 4.41528 17.4877 4.41528V4.41528ZM3.89791 11.1864H7.23116C7.68926 11.1864 8.11251 11.4346 8.34156 11.8376C8.57044 12.2405 8.57044 12.7369 8.34156 13.1397C8.11251 13.5428 7.68926 13.7909 7.23116 13.7909H3.89791V11.1864ZM20.8208 15.6139C20.8181 16.5111 20.4661 17.3707 19.8416 18.005C19.217 18.6393 18.3708 18.997 17.4876 18.9996H7.23098C6.34774 18.997 5.50159 18.6393 4.87693 18.005C4.25246 17.3707 3.90046 16.5111 3.89774 15.6139V15.3536H7.23098C8.23871 15.3536 9.16982 14.8075 9.6736 13.921C10.1775 13.0347 10.1775 11.9426 9.6736 11.0563C9.16982 10.1699 8.23866 9.62378 7.23098 9.62378H3.89774V9.3634C3.90048 8.46627 4.25247 7.60664 4.87693 6.97234C5.50159 6.33804 6.34774 5.98033 7.23098 5.97774H17.4876C18.3708 5.98036 19.217 6.33805 19.8416 6.97234C20.4661 7.60664 20.8181 8.46627 20.8208 9.3634V15.6139Z" fill="#734338"/>
</svg>
