<svg width="25" height="26" viewBox="0 0 25 26" fill="none" xmlns="http://www.w3.org/2000/svg">
<rect x="0.359375" y="0.893066" width="24" height="24.3774" rx="12" fill="white"/>
<path d="M13.8207 23.239H10.5096C9.92608 23.239 9.36627 23.0035 8.95361 22.5844C8.54095 22.1653 8.3091 21.5967 8.3091 21.0039C8.31117 20.8853 8.28173 20.7683 8.22389 20.6654C8.16588 20.5625 8.08169 20.4774 7.98013 20.419C7.77838 20.2928 7.5238 20.2928 7.32201 20.419C6.8164 20.7215 6.21217 20.8044 5.64584 20.6487C5.08343 20.4907 4.60383 20.116 4.30914 19.6044L2.65364 16.6903C2.36254 16.1776 2.28353 15.5688 2.43398 14.997C2.58427 14.4253 2.9518 13.9374 3.45568 13.6405C3.55914 13.5835 3.64556 13.499 3.70529 13.3959C3.76503 13.2929 3.79618 13.1752 3.79498 13.0556C3.79636 12.9387 3.76658 12.8234 3.70857 12.7222C3.65055 12.6211 3.56672 12.5377 3.46601 12.4812C2.95957 12.184 2.58979 11.6951 2.43744 11.1214C2.28527 10.5479 2.3629 9.93644 2.65365 9.421L4.30915 6.50691C4.60386 5.99528 5.08344 5.62058 5.64585 5.46252C6.21584 5.32159 6.81747 5.42353 7.31171 5.74456C7.44718 5.83251 7.60952 5.86783 7.76857 5.84405C7.92781 5.82045 8.0731 5.73914 8.1781 5.61534C8.28311 5.49155 8.34044 5.33348 8.33992 5.17C8.33717 4.57552 8.56784 4.00426 8.98082 3.58287C9.39379 3.16148 9.95514 2.92456 10.5405 2.92456H13.8515C14.4352 2.92456 14.9949 3.15991 15.4075 3.5792C15.8202 3.99832 16.052 4.56674 16.052 5.1597C16.05 5.27825 16.0794 5.39505 16.1373 5.49804C16.1953 5.60103 16.2795 5.68618 16.3812 5.74458C16.5829 5.87082 16.8375 5.87082 17.0393 5.74458C17.5447 5.44191 18.149 5.35903 18.7153 5.51483C19.2777 5.67289 19.7573 6.04758 20.052 6.55921L21.7075 9.47331L21.7077 9.47313C21.9986 9.98579 22.0776 10.5948 21.9273 11.1666C21.7769 11.7382 21.4095 12.226 20.9055 12.5231C20.802 12.5799 20.7156 12.6645 20.6558 12.7675C20.5961 12.8707 20.5651 12.9884 20.5662 13.108C20.5648 13.2249 20.5947 13.3402 20.6526 13.4412C20.7106 13.5425 20.7944 13.6257 20.8953 13.6823C21.4016 13.9796 21.7713 14.4684 21.9237 15.042C22.0759 15.6157 21.9982 16.2271 21.7077 16.7426L20.0522 19.6567L20.052 19.6565C19.7573 20.1681 19.2777 20.5428 18.7153 20.7011C18.1524 20.8574 17.5511 20.7743 17.0494 20.4713C16.914 20.3834 16.7518 20.3479 16.5926 20.3716C16.4333 20.3954 16.288 20.4766 16.183 20.6003C16.0782 20.7241 16.0207 20.8824 16.0212 21.0457C16.0104 21.6313 15.7738 22.189 15.3624 22.5992C14.9508 23.0094 14.3972 23.2392 13.8207 23.239L13.8207 23.239ZM7.65102 18.7583C8.03748 18.7599 8.41689 18.8643 8.75138 19.0614C9.08672 19.2556 9.36543 19.5368 9.55872 19.8763C9.75204 20.2157 9.85309 20.6013 9.85154 20.9935C9.85154 21.1718 9.92057 21.3428 10.0437 21.47C10.1667 21.5969 10.3342 21.6696 10.5096 21.6724H13.8207C13.9952 21.6724 14.1626 21.602 14.286 21.4766C14.4094 21.3512 14.4788 21.1813 14.4788 21.004C14.4766 20.6102 14.5773 20.2229 14.7704 19.8816C14.9637 19.5403 15.2428 19.2572 15.579 19.0614C15.9123 18.861 16.2922 18.7552 16.6794 18.7552C17.0665 18.7552 17.4464 18.861 17.7795 19.0614C17.9307 19.1523 18.1114 19.178 18.2814 19.1329C18.4513 19.0878 18.5965 18.9755 18.6845 18.8211L20.3915 15.907C20.4805 15.7551 20.5056 15.5733 20.461 15.4023C20.4166 15.2314 20.3063 15.0858 20.155 14.9984C19.7058 14.7361 19.3622 14.321 19.1847 13.8265C19.0072 13.332 19.0073 12.7898 19.1847 12.2953C19.3622 11.801 19.7058 11.3859 20.155 11.1235C20.307 11.0341 20.4175 10.8867 20.4619 10.7141C20.5063 10.5414 20.481 10.358 20.3915 10.2044L18.6845 7.29033C18.5964 7.13663 18.4525 7.02403 18.2834 6.97699C18.1159 6.93223 17.9377 6.95863 17.7899 7.05008C17.108 7.44752 16.2699 7.44734 15.5883 7.04956C14.9066 6.65177 14.4842 5.91636 14.4788 5.11799C14.4788 4.93964 14.4098 4.76864 14.2867 4.6415C14.1636 4.51456 13.9961 4.44182 13.8207 4.43902H10.5097C10.3352 4.43902 10.1678 4.50949 10.0444 4.63486C9.92093 4.76022 9.85158 4.93018 9.85158 5.1075C9.85382 5.50126 9.75311 5.88855 9.55996 6.22986C9.36665 6.57117 9.08759 6.85424 8.75139 7.05008C8.41811 7.25046 8.03817 7.35624 7.65103 7.35624C7.26388 7.35624 6.88396 7.25045 6.55084 7.05008C6.3997 6.95916 6.21895 6.93345 6.04903 6.97856C5.87912 7.02367 5.73383 7.13593 5.64587 7.29032L3.99037 10.2044C3.90137 10.3564 3.87624 10.5382 3.92065 10.7092C3.96524 10.88 4.07558 11.0257 4.2269 11.1131C4.676 11.3754 5.01961 11.7905 5.19712 12.285C5.3746 12.7794 5.3746 13.3217 5.19712 13.8161C5.01964 14.3104 4.67605 14.7255 4.2269 14.988C4.07317 15.0756 3.96042 15.2223 3.91394 15.3951C3.86763 15.5678 3.89139 15.7523 3.98004 15.907L5.63554 18.8211C5.72368 18.9748 5.86776 19.0874 6.03664 19.1345C6.20413 19.1792 6.3823 19.1528 6.53017 19.0614C6.8717 18.8636 7.25783 18.7592 7.65102 18.7584V18.7583Z" fill="#734338"/>
<path d="M12.1651 16.972C11.1424 16.972 10.1617 16.5594 9.43853 15.8248C8.71535 15.0903 8.30908 14.0941 8.30908 13.0553C8.30908 12.0166 8.71535 11.0204 9.43853 10.2859C10.1617 9.55133 11.1424 9.13867 12.1651 9.13867C13.1878 9.13867 14.1685 9.55132 14.8917 10.2859C15.6149 11.0204 16.0212 12.0166 16.0212 13.0553C16.0212 14.0941 15.6149 15.0903 14.8917 15.8248C14.1685 16.5594 13.1878 16.972 12.1651 16.972ZM12.1651 10.7053C11.5514 10.7053 10.9631 10.9529 10.5291 11.3936C10.0953 11.8344 9.8515 12.432 9.8515 13.0553C9.8515 13.6787 10.0953 14.2763 10.5291 14.7171C10.963 15.1578 11.5514 15.4053 12.1651 15.4053C12.7788 15.4053 13.3672 15.1578 13.8012 14.7171C14.235 14.2763 14.4787 13.6787 14.4787 13.0553C14.4787 12.432 14.235 11.8344 13.8012 11.3936C13.3672 10.9529 12.7788 10.7053 12.1651 10.7053Z" fill="#734338"/>
</svg>
