<svg width="22" height="22" viewBox="0 0 22 22" fill="none" xmlns="http://www.w3.org/2000/svg">
<path d="M13.8838 13.9487C14.4077 14.1233 14.974 13.8402 15.1487 13.3162C15.3233 12.7923 15.0402 12.226 14.5162 12.0513L13.8838 13.9487ZM10.6 11.8H9.6C9.6 12.2304 9.87543 12.6126 10.2838 12.7487L10.6 11.8ZM11.6 6.78226C11.6 6.22997 11.1523 5.78226 10.6 5.78226C10.0477 5.78226 9.6 6.22997 9.6 6.78226H11.6ZM14.5162 12.0513L10.9162 10.8513L10.2838 12.7487L13.8838 13.9487L14.5162 12.0513ZM11.6 11.8V6.78226H9.6V11.8H11.6ZM19.2 10.6C19.2 15.3496 15.3496 19.2 10.6 19.2V21.2C16.4542 21.2 21.2 16.4542 21.2 10.6H19.2ZM10.6 19.2C5.85035 19.2 2 15.3496 2 10.6H0C0 16.4542 4.74578 21.2 10.6 21.2V19.2ZM2 10.6C2 5.85035 5.85035 2 10.6 2V0C4.74578 0 0 4.74578 0 10.6H2ZM10.6 2C15.3496 2 19.2 5.85035 19.2 10.6H21.2C21.2 4.74578 16.4542 0 10.6 0V2Z" fill="#FF3232"/>
</svg>
